<svg width="69" height="70" viewBox="0 0 69 70" fill="none" xmlns="http://www.w3.org/2000/svg">
<rect x="4.5" y="5.5" width="64" height="64" stroke="white"/>
<rect width="65" height="65" fill="white"/>
<path d="M7.9668 16.627C8.01953 16.293 8.13379 16.0059 8.30957 15.7656C8.48535 15.5254 8.69043 15.4053 8.9248 15.4053C9.41113 15.4053 9.74512 15.9854 9.92676 17.1455C10.0967 18.2764 11.2129 21.1855 13.2754 25.873C13.498 25.4922 13.7383 25.1025 13.9961 24.7041C15.1621 22.8818 15.9971 21.4844 16.501 20.5117C18.5342 16.709 19.876 14.8076 20.5264 14.8076C20.9717 14.8076 21.1943 15.0596 21.1943 15.5635C21.1943 15.6514 21.1709 15.7305 21.124 15.8008C21.083 15.8652 20.8896 16.1465 20.5439 16.6445C19.3955 18.3027 18.2939 20.0312 17.2393 21.8301C16.4072 23.2422 15.7188 24.373 15.1738 25.2227C14.5645 26.166 14.2041 26.8486 14.0928 27.2705C14.0225 27.5049 13.8525 27.6953 13.583 27.8418C13.3135 27.9883 12.9912 28.0615 12.6162 28.0615C12.458 28.0615 12.1035 27.3086 11.5527 25.8027C11.3066 25.1465 10.4834 23.0459 9.08301 19.501C8.33887 17.6201 7.9668 16.6621 7.9668 16.627ZM26.3096 24.8008C25.4893 25.9023 24.6777 26.7285 23.875 27.2793C23.0723 27.8301 22.3369 28.1055 21.6689 28.1055C21.2178 28.1055 20.8281 27.915 20.5 27.5342C20.1719 27.1533 20.0078 26.6641 20.0078 26.0664C20.0078 24.5254 20.6963 22.8672 22.0732 21.0918C23.4502 19.3105 24.8184 18.4199 26.1777 18.4199C26.6699 18.4199 27.0361 18.7012 27.2764 19.2637C27.3525 19.4512 27.4727 19.5449 27.6367 19.5449C28.1055 19.5449 28.3398 19.7266 28.3398 20.0898C28.3398 20.2715 28.3105 20.5205 28.252 20.8369C27.9355 22.5654 27.7773 23.7842 27.7773 24.4932C27.7773 25.9111 28.0469 26.7607 28.5859 27.042C28.8438 27.1826 28.9727 27.3555 28.9727 27.5605C28.9727 27.7422 28.8467 27.9238 28.5947 28.1055C28.3428 28.293 28.0996 28.3867 27.8652 28.3867C27.4141 28.3867 27.042 28.0762 26.749 27.4551C26.4561 26.834 26.3096 25.9492 26.3096 24.8008ZM25.7734 19.8525C25 19.8525 24.1006 20.5791 23.0752 22.0322C22.0498 23.4795 21.5371 24.6807 21.5371 25.6357C21.5371 26.3096 21.7598 26.6465 22.2051 26.6465C22.8496 26.6465 23.7432 25.9961 24.8857 24.6953C26.0283 23.3945 26.5996 22.1992 26.5996 21.1094C26.5996 20.2715 26.3242 19.8525 25.7734 19.8525ZM36.9355 21.2412C36.6309 21.2412 36.2969 21.4404 35.9336 21.8389C35.5762 22.2373 35.0283 23.1309 34.29 24.5195C33.3174 26.3828 32.6875 27.4434 32.4004 27.7012C32.1191 27.959 31.8848 28.0879 31.6973 28.0879C31.0059 28.0879 30.6602 27.7539 30.6602 27.0859C30.6602 26.8047 30.707 26.4062 30.8008 25.8906C31.123 24.1211 31.2842 22.2549 31.2842 20.292C31.2842 20.0693 31.3779 19.8232 31.5654 19.5537C31.7588 19.2783 31.9404 19.1406 32.1104 19.1406C32.415 19.1406 32.6318 19.2344 32.7607 19.4219C32.8896 19.6094 32.9541 19.9873 32.9541 20.5557C32.9541 21.1475 32.7783 22.3662 32.4268 24.2119C32.3096 24.8213 32.251 25.208 32.251 25.3721C32.251 25.4658 32.2744 25.5127 32.3213 25.5127C32.4092 25.5127 32.8164 24.8125 33.543 23.4121C34.2754 21.9883 34.917 20.9863 35.4678 20.4062C36.0186 19.8262 36.625 19.5361 37.2871 19.5361C37.8145 19.5361 38.2422 19.7764 38.5703 20.2568C38.9043 20.7373 39.1475 21.6133 39.2998 22.8848C39.4639 24.332 39.6104 25.2344 39.7393 25.5918C39.874 25.9434 40.085 26.1191 40.3721 26.1191C40.5537 26.1191 40.7822 26.0547 41.0576 25.9258C41.1045 25.9023 41.1396 25.8906 41.1631 25.8906C41.415 25.8906 41.541 26.0371 41.541 26.3301C41.541 26.5879 41.3682 26.8633 41.0225 27.1562C40.6768 27.4434 40.2607 27.5869 39.7744 27.5869C39.2764 27.5869 38.8896 27.3906 38.6143 26.998C38.3447 26.5996 38.1309 25.542 37.9727 23.8252C37.8086 22.1025 37.4629 21.2412 36.9355 21.2412ZM17.1074 50.416C14.9512 52.1094 13.0029 52.9561 11.2627 52.9561C10.2783 52.9561 9.49609 52.666 8.91602 52.0859C8.33594 51.5 8.0459 50.6914 8.0459 49.6602C8.0459 47.1816 9.10352 44.8701 11.2188 42.7256C13.334 40.5752 15.5254 39.5 17.793 39.5C18.4609 39.5 18.9941 39.6201 19.3926 39.8604C19.7969 40.1006 19.999 40.4053 19.999 40.7744C19.999 41.0967 19.876 41.4541 19.6299 41.8467C19.3896 42.2334 19.1553 42.4268 18.9268 42.4268C18.7744 42.4268 18.6484 42.3066 18.5488 42.0664C18.3848 41.6855 18.2061 41.4219 18.0127 41.2754C17.8193 41.1289 17.5234 41.0557 17.125 41.0557C16.1055 41.0557 14.96 41.542 13.6885 42.5146C12.417 43.4873 11.4121 44.6035 10.6738 45.8633C9.94141 47.1172 9.5752 48.333 9.5752 49.5107C9.5752 50.8818 10.2051 51.5674 11.4648 51.5674C12.0449 51.5674 12.7129 51.4238 13.4688 51.1367C14.2305 50.8438 15.042 50.4043 15.9033 49.8184C16.7705 49.2266 17.2949 48.708 17.4766 48.2627C17.6641 47.8174 17.8105 47.2109 17.916 46.4434C17.9746 46.0273 18.2793 45.8193 18.8301 45.8193C19.4219 45.8193 19.7178 46.001 19.7178 46.3643C19.7178 46.5283 19.6299 46.8213 19.4541 47.2432C19.167 47.9229 18.9531 48.541 18.8125 49.0977C18.6719 49.6543 18.543 50.2988 18.4258 51.0312C18.3145 51.7637 18.2588 52.2852 18.2588 52.5957C18.2588 52.8711 18.3115 53.2783 18.417 53.8174C18.4346 53.9287 18.4434 54.0225 18.4434 54.0986C18.4434 54.3037 18.3643 54.5029 18.2061 54.6963C18.0537 54.8896 17.8633 54.9863 17.6348 54.9863C17.3828 54.9863 17.1338 54.8867 16.8877 54.6875C16.6475 54.4941 16.5273 54.2773 16.5273 54.0371C16.5273 53.8496 16.6621 53.0088 16.9316 51.5146C17.0137 51.0459 17.0723 50.6797 17.1074 50.416ZM24.71 53.4395C23.9072 53.4395 23.2451 53.1348 22.7236 52.5254C22.2021 51.916 21.9414 51.1631 21.9414 50.2666C21.9414 48.7549 22.4482 47.2666 23.4619 45.8018C24.4814 44.3311 25.7002 43.5957 27.1182 43.5957C28.0557 43.5957 28.8145 43.9561 29.3945 44.6768C29.9805 45.3975 30.2734 46.2559 30.2734 47.252C30.2734 48.7754 29.6699 50.1875 28.4629 51.4883C27.2617 52.7891 26.0107 53.4395 24.71 53.4395ZM23.4883 50.0381C23.4883 50.6299 23.6113 51.1133 23.8574 51.4883C24.1094 51.8633 24.4404 52.0508 24.8506 52.0508C25.7236 52.0508 26.5996 51.5732 27.4785 50.6182C28.3574 49.6572 28.7969 48.5908 28.7969 47.4189C28.7969 46.6982 28.627 46.1152 28.2871 45.6699C27.9531 45.2188 27.502 44.9932 26.9336 44.9932C25.9902 44.9932 25.1787 45.5732 24.499 46.7334C23.8252 47.8877 23.4883 48.9893 23.4883 50.0381ZM38.5352 49.8184C38.4648 49.7656 38.2686 49.9297 37.9463 50.3105C37.4131 50.9375 36.7305 51.4941 35.8984 51.9805C35.0723 52.4668 34.3047 52.71 33.5957 52.71C33.0684 52.71 32.6553 52.5459 32.3564 52.2178C32.0576 51.8838 31.9082 51.4238 31.9082 50.8379C31.9082 49.9297 32.251 48.9189 32.9365 47.8057C33.6221 46.6865 34.5801 45.7109 35.8105 44.8789C37.0469 44.0469 38.1279 43.6309 39.0537 43.6309C39.54 43.6309 39.9678 43.7715 40.3369 44.0527C40.4248 44.123 40.501 44.1816 40.5654 44.2285C40.6709 44.3047 40.7705 44.46 40.8643 44.6943C40.958 44.9229 41.0049 45.1074 41.0049 45.248C41.0049 45.3359 40.9727 45.4707 40.9082 45.6523C40.5508 46.625 40.3076 47.4307 40.1787 48.0693C40.0498 48.708 39.9092 49.7832 39.7568 51.2949C39.6162 52.6543 39.4639 53.7002 39.2998 54.4326C39.1357 55.165 38.8398 55.874 38.4121 56.5596C37.9844 57.2451 37.4717 57.7578 36.874 58.0977C36.2764 58.4434 35.6611 58.6162 35.0283 58.6162C33.9326 58.6162 32.8516 58.2383 31.7852 57.4824C30.7188 56.7266 30.1855 56.1201 30.1855 55.6631C30.1855 55.376 30.2939 55.2324 30.5107 55.2324C30.6162 55.2324 30.9297 55.4053 31.4512 55.751C32.8281 56.6709 34.0674 57.1309 35.1689 57.1309C36.1299 57.1309 36.8594 56.6182 37.3574 55.5928C37.8613 54.5674 38.2041 53.0352 38.3857 50.9961C38.4268 50.5332 38.4766 50.1406 38.5352 49.8184ZM38.5176 44.9932C38.0195 44.9932 37.3955 45.251 36.6455 45.7666C35.9014 46.2822 35.1777 47.0381 34.4746 48.0342C33.7715 49.0303 33.4199 49.8652 33.4199 50.5391C33.4199 50.7676 33.4902 50.9492 33.6309 51.084C33.7773 51.2129 33.9385 51.2773 34.1143 51.2773C34.6357 51.2773 35.3154 51.0078 36.1533 50.4688C36.9971 49.9297 37.7207 49.1826 38.3242 48.2275C38.9336 47.2666 39.2383 46.5137 39.2383 45.9688C39.2383 45.3184 38.998 44.9932 38.5176 44.9932ZM44.0986 50.3633C46.2783 46.3379 48.0742 44.3252 49.4863 44.3252C49.8613 44.3252 50.166 44.5391 50.4004 44.9668C50.6348 45.3945 50.8252 46.3438 50.9717 47.8145C51.1182 49.3789 51.4492 50.5098 51.9648 51.207C52.2285 51.5645 52.3604 51.8281 52.3604 51.998C52.3604 52.1504 52.2725 52.291 52.0967 52.4199C51.9209 52.5488 51.7334 52.6133 51.5342 52.6133C51.0771 52.6133 50.6729 52.3584 50.3213 51.8486C49.9697 51.333 49.7441 50.4307 49.6445 49.1416C49.5449 47.9229 49.4395 47.126 49.3281 46.751C49.2168 46.376 49.0322 46.1885 48.7744 46.1885C48.1592 46.1885 46.9199 47.7969 45.0566 51.0137C44.5 51.9746 44.0898 52.6045 43.8262 52.9033C43.5625 53.1963 43.3223 53.3428 43.1055 53.3428C42.8477 53.3428 42.6309 53.2666 42.4551 53.1143C42.2793 52.9619 42.1914 52.7744 42.1914 52.5518C42.1914 52.3877 42.2383 52.0713 42.332 51.6025C43.0527 47.8818 43.6211 44.2021 44.0371 40.5635C44.1309 39.7139 44.2803 39.1484 44.4854 38.8672C44.6963 38.5859 44.8721 38.4453 45.0127 38.4453C45.2646 38.4453 45.4932 38.5479 45.6982 38.7529C45.9033 38.958 46.0059 39.2422 46.0059 39.6055C46.0059 40.6836 45.7422 42.1631 45.2148 44.0439C44.957 44.9756 44.6846 46.1592 44.3975 47.5947C44.1104 49.0303 43.9668 49.918 43.9668 50.2578C43.9668 50.3281 43.999 50.3633 44.0635 50.3633H44.0986Z" fill="#141414"/>
</svg>
